<?xml version="1.0" standalone="no"?>
<!DOCTYPE svg PUBLIC "-//W3C//DTD SVG 20010904//EN"
 "http://www.w3.org/TR/2001/REC-SVG-20010904/DTD/svg10.dtd">
<svg version="1.0" xmlns="http://www.w3.org/2000/svg"
 width="1024.000000pt" height="1024.000000pt" viewBox="0 0 1024.000000 1024.000000"
 preserveAspectRatio="xMidYMid meet">
<metadata>
Created by potrace 1.11, written by Peter Selinger 2001-2013
</metadata>
<g transform="translate(0.000000,1024.000000) scale(0.100000,-0.100000)"
fill="#000000" stroke="none">
<path d="M0 5120 l0 -5120 5120 0 5120 0 0 5120 0 5120 -5120 0 -5120 0 0
-5120z m5275 3900 c652 -36 1266 -222 1802 -548 1474 -895 2177 -2610 1757
-4287 -86 -345 -257 -749 -448 -1058 -806 -1307 -2285 -2015 -3801 -1821
-1286 164 -2418 976 -2985 2139 -528 1084 -528 2326 0 3410 609 1251 1870
2088 3256 2164 218 12 213 12 419 1z"/>
<path d="M4266 7565 c-123 -34 -269 -140 -336 -245 -18 -27 -67 -143 -110
-258 l-77 -207 -384 -6 c-432 -6 -439 -7 -595 -84 -184 -90 -328 -264 -380
-460 -18 -67 -19 -132 -19 -1485 l0 -1415 23 -80 c29 -98 58 -153 131 -244 99
-124 238 -218 381 -258 62 -17 169 -18 2220 -18 2051 0 2158 1 2220 18 143 40
282 134 381 258 73 91 102 146 131 244 l23 80 0 1415 c0 1353 -1 1418 -19
1485 -52 196 -196 370 -380 460 -156 77 -163 78 -595 84 l-384 6 -77 207 c-43
115 -92 231 -110 258 -69 107 -214 212 -340 245 -78 21 -1628 21 -1704 0z
m1103 -1481 c262 -53 492 -182 683 -383 261 -274 385 -628 349 -993 -33 -326
-153 -575 -390 -806 -180 -175 -376 -282 -610 -334 -138 -31 -424 -31 -562 0
-234 52 -430 159 -610 334 -147 144 -231 265 -300 436 -139 341 -125 733 37
1054 80 158 233 342 377 452 182 139 406 231 626 256 100 12 305 3 400 -16z"/>
<path d="M4931 5629 c-231 -49 -444 -216 -556 -438 -15 -30 -39 -93 -53 -140
-23 -76 -26 -103 -26 -231 1 -128 4 -156 28 -235 48 -158 142 -297 280 -410
297 -243 735 -243 1032 0 138 113 233 252 280 410 24 79 27 107 27 235 1 128
-2 155 -25 231 -57 189 -172 349 -332 458 -182 126 -420 169 -655 120z"/>
</g>
</svg>
